<svg xmlns="http://www.w3.org/2000/svg" viewBox="0 0 800 400" width="800" height="400" role="img" aria-label="Animated diagram on a white background. Flat plates appear one by one across an isometric site grid, then rise into three-dimensional volumes of varying height, resolving into a massing model. Three labelled stages run in sequence: 2D site layout, extruding geometry, 3D Revit model."><title>Automated model generation</title><desc>Animated diagram on a white background. Flat plates appear one by one across an isometric site grid, then rise into three-dimensional volumes of varying height, resolving into a massing model. Three labelled stages run in sequence: 2D site layout, extruding geometry, 3D Revit model.</desc><rect x="0" y="0" width="800" height="400" fill="#ffffff"/><path d="M386.39 199.14L277.47 262.02M413.61 214.86L304.7 277.74M440.84 230.58L331.93 293.46M468.07 246.3L359.16 309.18M495.3 262.02L386.39 324.9M522.53 277.74L413.61 340.62M386.39 199.14L522.53 277.74M359.16 214.86L495.3 293.46M331.93 230.58L468.07 309.18M304.7 246.3L440.84 324.9M277.47 262.02L413.61 340.62" fill="none" stroke="#d8dcd6" stroke-width="0.75" stroke-linecap="round" stroke-linejoin="round"/><polygon points="386.39,199.14 409.8,212.66 386.39,226.18 362.97,212.66" fill="#c8f94e" stroke="#0a0c0b" stroke-width="0.75" stroke-linecap="round" stroke-linejoin="round"/><polygon points="413.61,214.86 437.03,228.38 413.61,241.9 390.2,228.38" fill="#c8f94e" stroke="#0a0c0b" stroke-width="0.75" stroke-linecap="round" stroke-linejoin="round"/><polygon points="359.16,214.86 382.57,228.38 359.16,241.9 335.74,228.38" fill="#c8f94e" stroke="#0a0c0b" stroke-width="0.75" stroke-linecap="round" stroke-linejoin="round"/><polygon points="440.84,230.58 464.26,244.1 440.84,257.62 417.43,244.1" fill="#c8f94e" stroke="#0a0c0b" stroke-width="0.75" stroke-linecap="round" stroke-linejoin="round"/><polygon points="386.39,230.58 409.8,244.1 386.39,257.62 362.97,244.1" fill="#c8f94e" stroke="#0a0c0b" stroke-width="0.75" stroke-linecap="round" stroke-linejoin="round"/><polygon points="331.93,230.58 355.35,244.1 331.93,257.62 308.51,244.1" fill="#c8f94e" stroke="#0a0c0b" stroke-width="0.75" stroke-linecap="round" stroke-linejoin="round"/><polygon points="468.07,246.3 491.49,259.82 468.07,273.34 444.65,259.82" fill="#c8f94e" stroke="#0a0c0b" stroke-width="0.75" stroke-linecap="round" stroke-linejoin="round"/><polygon points="413.61,246.3 437.03,259.82 413.61,273.34 390.2,259.82" fill="#c8f94e" stroke="#0a0c0b" stroke-width="0.75" stroke-linecap="round" stroke-linejoin="round"/><polygon points="359.16,246.3 382.57,259.82 359.16,273.34 335.74,259.82" fill="#c8f94e" stroke="#0a0c0b" stroke-width="0.75" stroke-linecap="round" stroke-linejoin="round"/><polygon points="304.7,246.3 328.12,259.82 304.7,273.34 281.29,259.82" fill="#c8f94e" stroke="#0a0c0b" stroke-width="0.75" stroke-linecap="round" stroke-linejoin="round"/><polygon points="495.3,262.02 518.71,275.54 495.3,289.06 471.88,275.54" fill="#c8f94e" stroke="#0a0c0b" stroke-width="0.75" stroke-linecap="round" stroke-linejoin="round"/><polygon points="440.84,262.02 464.26,275.54 440.84,289.06 417.43,275.54" fill="#c8f94e" stroke="#0a0c0b" stroke-width="0.75" stroke-linecap="round" stroke-linejoin="round"/><polygon points="386.39,262.02 409.8,275.54 386.39,289.06 362.97,275.54" fill="#c8f94e" stroke="#0a0c0b" stroke-width="0.75" stroke-linecap="round" stroke-linejoin="round"/><polygon points="331.93,262.02 355.35,275.54 331.93,289.06 308.51,275.54" fill="#c8f94e" stroke="#0a0c0b" stroke-width="0.75" stroke-linecap="round" stroke-linejoin="round"/><polygon points="468.07,277.74 491.49,291.26 468.07,304.78 444.65,291.26" fill="#c8f94e" stroke="#0a0c0b" stroke-width="0.75" stroke-linecap="round" stroke-linejoin="round"/><polygon points="413.61,277.74 437.03,291.26 413.61,304.78 390.2,291.26" fill="#c8f94e" stroke="#0a0c0b" stroke-width="0.75" stroke-linecap="round" stroke-linejoin="round"/><polygon points="359.16,277.74 382.57,291.26 359.16,304.78 335.74,291.26" fill="#c8f94e" stroke="#0a0c0b" stroke-width="0.75" stroke-linecap="round" stroke-linejoin="round"/><polygon points="440.84,293.46 464.26,306.98 440.84,320.5 417.43,306.98" fill="#c8f94e" stroke="#0a0c0b" stroke-width="0.75" stroke-linecap="round" stroke-linejoin="round"/><polygon points="386.39,293.46 409.8,306.98 386.39,320.5 362.97,306.98" fill="#c8f94e" stroke="#0a0c0b" stroke-width="0.75" stroke-linecap="round" stroke-linejoin="round"/><polygon points="413.61,309.18 437.03,322.7 413.61,336.22 390.2,322.7" fill="#c8f94e" stroke="#0a0c0b" stroke-width="0.75" stroke-linecap="round" stroke-linejoin="round"/><path d="M40 354 L760 354" fill="none" stroke="#eceee9" stroke-width="0.75" stroke-linecap="round" stroke-linejoin="round"/><polygon points="386.39,136.26 409.8,149.78 386.39,163.3 362.97,149.78" fill="#ffffff" stroke="#0a0c0b" stroke-width="0.75" stroke-linecap="round" stroke-linejoin="round"/><polygon points="386.39,136.26 409.8,149.78 386.39,163.3 362.97,149.78" fill="#c8f94e" stroke="#0a0c0b" stroke-width="0.75" stroke-linecap="round" stroke-linejoin="round"/><polygon points="362.97,212.66 386.39,226.18 386.39,163.3 362.97,149.78" fill="#dbdbdb" stroke="#0a0c0b" stroke-width="0.75" stroke-linecap="round" stroke-linejoin="round"/><polygon points="413.61,120.54 437.03,134.06 413.61,147.58 390.2,134.06" fill="#ffffff" stroke="#0a0c0b" stroke-width="0.75" stroke-linecap="round" stroke-linejoin="round"/><polygon points="413.61,120.54 437.03,134.06 413.61,147.58 390.2,134.06" fill="#c8f94e" stroke="#0a0c0b" stroke-width="0.75" stroke-linecap="round" stroke-linejoin="round"/><polygon points="409.8,212.66 386.39,226.18 386.39,163.3 409.8,149.78" fill="#b8b8b8" stroke="#0a0c0b" stroke-width="0.75" stroke-linecap="round" stroke-linejoin="round"/><polygon points="390.2,228.38 413.61,241.9 413.61,147.58 390.2,134.06" fill="#dbdbdb" stroke="#0a0c0b" stroke-width="0.75" stroke-linecap="round" stroke-linejoin="round"/><polygon points="359.16,183.42 382.57,196.94 359.16,210.46 335.74,196.94" fill="#ffffff" stroke="#0a0c0b" stroke-width="0.75" stroke-linecap="round" stroke-linejoin="round"/><polygon points="359.16,183.42 382.57,196.94 359.16,210.46 335.74,196.94" fill="#c8f94e" stroke="#0a0c0b" stroke-width="0.75" stroke-linecap="round" stroke-linejoin="round"/><polygon points="437.03,228.38 413.61,241.9 413.61,147.58 437.03,134.06" fill="#b8b8b8" stroke="#0a0c0b" stroke-width="0.75" stroke-linecap="round" stroke-linejoin="round"/><polygon points="335.74,228.38 359.16,241.9 359.16,210.46 335.74,196.94" fill="#dbdbdb" stroke="#0a0c0b" stroke-width="0.75" stroke-linecap="round" stroke-linejoin="round"/><polygon points="440.84,199.14 464.26,212.66 440.84,226.18 417.43,212.66" fill="#ffffff" stroke="#0a0c0b" stroke-width="0.75" stroke-linecap="round" stroke-linejoin="round"/><polygon points="440.84,199.14 464.26,212.66 440.84,226.18 417.43,212.66" fill="#c8f94e" stroke="#0a0c0b" stroke-width="0.75" stroke-linecap="round" stroke-linejoin="round"/><polygon points="382.57,228.38 359.16,241.9 359.16,210.46 382.57,196.94" fill="#b8b8b8" stroke="#0a0c0b" stroke-width="0.75" stroke-linecap="round" stroke-linejoin="round"/><polygon points="417.43,244.1 440.84,257.62 440.84,226.18 417.43,212.66" fill="#dbdbdb" stroke="#0a0c0b" stroke-width="0.75" stroke-linecap="round" stroke-linejoin="round"/><polygon points="386.39,167.7 409.8,181.22 386.39,194.74 362.97,181.22" fill="#ffffff" stroke="#0a0c0b" stroke-width="0.75" stroke-linecap="round" stroke-linejoin="round"/><polygon points="386.39,167.7 409.8,181.22 386.39,194.74 362.97,181.22" fill="#c8f94e" stroke="#0a0c0b" stroke-width="0.75" stroke-linecap="round" stroke-linejoin="round"/><polygon points="464.26,244.1 440.84,257.62 440.84,226.18 464.26,212.66" fill="#b8b8b8" stroke="#0a0c0b" stroke-width="0.75" stroke-linecap="round" stroke-linejoin="round"/><polygon points="362.97,244.1 386.39,257.62 386.39,194.74 362.97,181.22" fill="#dbdbdb" stroke="#0a0c0b" stroke-width="0.75" stroke-linecap="round" stroke-linejoin="round"/><polygon points="331.93,136.26 355.35,149.78 331.93,163.3 308.51,149.78" fill="#ffffff" stroke="#0a0c0b" stroke-width="0.75" stroke-linecap="round" stroke-linejoin="round"/><polygon points="331.93,136.26 355.35,149.78 331.93,163.3 308.51,149.78" fill="#c8f94e" stroke="#0a0c0b" stroke-width="0.75" stroke-linecap="round" stroke-linejoin="round"/><polygon points="409.8,244.1 386.39,257.62 386.39,194.74 409.8,181.22" fill="#b8b8b8" stroke="#0a0c0b" stroke-width="0.75" stroke-linecap="round" stroke-linejoin="round"/><polygon points="468.07,183.42 491.49,196.94 468.07,210.46 444.65,196.94" fill="#ffffff" stroke="#0a0c0b" stroke-width="0.75" stroke-linecap="round" stroke-linejoin="round"/><polygon points="308.51,244.1 331.93,257.62 331.93,163.3 308.51,149.78" fill="#dbdbdb" stroke="#0a0c0b" stroke-width="0.75" stroke-linecap="round" stroke-linejoin="round"/><polygon points="468.07,183.42 491.49,196.94 468.07,210.46 444.65,196.94" fill="#c8f94e" stroke="#0a0c0b" stroke-width="0.75" stroke-linecap="round" stroke-linejoin="round"/><polygon points="444.65,259.82 468.07,273.34 468.07,210.46 444.65,196.94" fill="#dbdbdb" stroke="#0a0c0b" stroke-width="0.75" stroke-linecap="round" stroke-linejoin="round"/><polygon points="355.35,244.1 331.93,257.62 331.93,163.3 355.35,149.78" fill="#b8b8b8" stroke="#0a0c0b" stroke-width="0.75" stroke-linecap="round" stroke-linejoin="round"/><polygon points="413.61,151.98 437.03,165.5 413.61,179.02 390.2,165.5" fill="#ffffff" stroke="#0a0c0b" stroke-width="0.75" stroke-linecap="round" stroke-linejoin="round"/><polygon points="413.61,151.98 437.03,165.5 413.61,179.02 390.2,165.5" fill="#c8f94e" stroke="#0a0c0b" stroke-width="0.75" stroke-linecap="round" stroke-linejoin="round"/><polygon points="491.49,259.82 468.07,273.34 468.07,210.46 491.49,196.94" fill="#b8b8b8" stroke="#0a0c0b" stroke-width="0.75" stroke-linecap="round" stroke-linejoin="round"/><polygon points="390.2,259.82 413.61,273.34 413.61,179.02 390.2,165.5" fill="#dbdbdb" stroke="#0a0c0b" stroke-width="0.75" stroke-linecap="round" stroke-linejoin="round"/><polygon points="359.16,214.86 382.57,228.38 359.16,241.9 335.74,228.38" fill="#ffffff" stroke="#0a0c0b" stroke-width="0.75" stroke-linecap="round" stroke-linejoin="round"/><polygon points="359.16,214.86 382.57,228.38 359.16,241.9 335.74,228.38" fill="#c8f94e" stroke="#0a0c0b" stroke-width="0.75" stroke-linecap="round" stroke-linejoin="round"/><polygon points="335.74,259.82 359.16,273.34 359.16,241.9 335.74,228.38" fill="#dbdbdb" stroke="#0a0c0b" stroke-width="0.75" stroke-linecap="round" stroke-linejoin="round"/><polygon points="304.7,183.42 328.12,196.94 304.7,210.46 281.29,196.94" fill="#ffffff" stroke="#0a0c0b" stroke-width="0.75" stroke-linecap="round" stroke-linejoin="round"/><polygon points="437.03,259.82 413.61,273.34 413.61,179.02 437.03,165.5" fill="#b8b8b8" stroke="#0a0c0b" stroke-width="0.75" stroke-linecap="round" stroke-linejoin="round"/><polygon points="304.7,183.42 328.12,196.94 304.7,210.46 281.29,196.94" fill="#c8f94e" stroke="#0a0c0b" stroke-width="0.75" stroke-linecap="round" stroke-linejoin="round"/><polygon points="281.29,259.82 304.7,273.34 304.7,210.46 281.29,196.94" fill="#dbdbdb" stroke="#0a0c0b" stroke-width="0.75" stroke-linecap="round" stroke-linejoin="round"/><polygon points="382.57,259.82 359.16,273.34 359.16,241.9 382.57,228.38" fill="#b8b8b8" stroke="#0a0c0b" stroke-width="0.75" stroke-linecap="round" stroke-linejoin="round"/><polygon points="495.3,136.26 518.71,149.78 495.3,163.3 471.88,149.78" fill="#ffffff" stroke="#0a0c0b" stroke-width="0.75" stroke-linecap="round" stroke-linejoin="round"/><polygon points="495.3,136.26 518.71,149.78 495.3,163.3 471.88,149.78" fill="#c8f94e" stroke="#0a0c0b" stroke-width="0.75" stroke-linecap="round" stroke-linejoin="round"/><polygon points="328.12,259.82 304.7,273.34 304.7,210.46 328.12,196.94" fill="#b8b8b8" stroke="#0a0c0b" stroke-width="0.75" stroke-linecap="round" stroke-linejoin="round"/><polygon points="471.88,275.54 495.3,289.06 495.3,163.3 471.88,149.78" fill="#dbdbdb" stroke="#0a0c0b" stroke-width="0.75" stroke-linecap="round" stroke-linejoin="round"/><polygon points="440.84,199.14 464.26,212.66 440.84,226.18 417.43,212.66" fill="#ffffff" stroke="#0a0c0b" stroke-width="0.75" stroke-linecap="round" stroke-linejoin="round"/><polygon points="440.84,199.14 464.26,212.66 440.84,226.18 417.43,212.66" fill="#c8f94e" stroke="#0a0c0b" stroke-width="0.75" stroke-linecap="round" stroke-linejoin="round"/><polygon points="417.43,275.54 440.84,289.06 440.84,226.18 417.43,212.66" fill="#dbdbdb" stroke="#0a0c0b" stroke-width="0.75" stroke-linecap="round" stroke-linejoin="round"/><polygon points="386.39,136.26 409.8,149.78 386.39,163.3 362.97,149.78" fill="#ffffff" stroke="#0a0c0b" stroke-width="0.75" stroke-linecap="round" stroke-linejoin="round"/><polygon points="518.71,275.54 495.3,289.06 495.3,163.3 518.71,149.78" fill="#b8b8b8" stroke="#0a0c0b" stroke-width="0.75" stroke-linecap="round" stroke-linejoin="round"/><polygon points="386.39,136.26 409.8,149.78 386.39,163.3 362.97,149.78" fill="#c8f94e" stroke="#0a0c0b" stroke-width="0.75" stroke-linecap="round" stroke-linejoin="round"/><polygon points="464.26,275.54 440.84,289.06 440.84,226.18 464.26,212.66" fill="#b8b8b8" stroke="#0a0c0b" stroke-width="0.75" stroke-linecap="round" stroke-linejoin="round"/><polygon points="362.97,275.54 386.39,289.06 386.39,163.3 362.97,149.78" fill="#dbdbdb" stroke="#0a0c0b" stroke-width="0.75" stroke-linecap="round" stroke-linejoin="round"/><polygon points="331.93,167.7 355.35,181.22 331.93,194.74 308.51,181.22" fill="#ffffff" stroke="#0a0c0b" stroke-width="0.75" stroke-linecap="round" stroke-linejoin="round"/><polygon points="331.93,167.7 355.35,181.22 331.93,194.74 308.51,181.22" fill="#c8f94e" stroke="#0a0c0b" stroke-width="0.75" stroke-linecap="round" stroke-linejoin="round"/><polygon points="409.8,275.54 386.39,289.06 386.39,163.3 409.8,149.78" fill="#b8b8b8" stroke="#0a0c0b" stroke-width="0.75" stroke-linecap="round" stroke-linejoin="round"/><polygon points="308.51,275.54 331.93,289.06 331.93,194.74 308.51,181.22" fill="#dbdbdb" stroke="#0a0c0b" stroke-width="0.75" stroke-linecap="round" stroke-linejoin="round"/><polygon points="468.07,246.3 491.49,259.82 468.07,273.34 444.65,259.82" fill="#ffffff" stroke="#0a0c0b" stroke-width="0.75" stroke-linecap="round" stroke-linejoin="round"/><polygon points="468.07,246.3 491.49,259.82 468.07,273.34 444.65,259.82" fill="#c8f94e" stroke="#0a0c0b" stroke-width="0.75" stroke-linecap="round" stroke-linejoin="round"/><polygon points="355.35,275.54 331.93,289.06 331.93,194.74 355.35,181.22" fill="#b8b8b8" stroke="#0a0c0b" stroke-width="0.75" stroke-linecap="round" stroke-linejoin="round"/><polygon points="413.61,214.86 437.03,228.38 413.61,241.9 390.2,228.38" fill="#ffffff" stroke="#0a0c0b" stroke-width="0.75" stroke-linecap="round" stroke-linejoin="round"/><polygon points="444.65,291.26 468.07,304.78 468.07,273.34 444.65,259.82" fill="#dbdbdb" stroke="#0a0c0b" stroke-width="0.75" stroke-linecap="round" stroke-linejoin="round"/><polygon points="413.61,214.86 437.03,228.38 413.61,241.9 390.2,228.38" fill="#c8f94e" stroke="#0a0c0b" stroke-width="0.75" stroke-linecap="round" stroke-linejoin="round"/><polygon points="491.49,291.26 468.07,304.78 468.07,273.34 491.49,259.82" fill="#b8b8b8" stroke="#0a0c0b" stroke-width="0.75" stroke-linecap="round" stroke-linejoin="round"/><polygon points="390.2,291.26 413.61,304.78 413.61,241.9 390.2,228.38" fill="#dbdbdb" stroke="#0a0c0b" stroke-width="0.75" stroke-linecap="round" stroke-linejoin="round"/><polygon points="359.16,246.3 382.57,259.82 359.16,273.34 335.74,259.82" fill="#ffffff" stroke="#0a0c0b" stroke-width="0.75" stroke-linecap="round" stroke-linejoin="round"/><polygon points="359.16,246.3 382.57,259.82 359.16,273.34 335.74,259.82" fill="#c8f94e" stroke="#0a0c0b" stroke-width="0.75" stroke-linecap="round" stroke-linejoin="round"/><polygon points="437.03,291.26 413.61,304.78 413.61,241.9 437.03,228.38" fill="#b8b8b8" stroke="#0a0c0b" stroke-width="0.75" stroke-linecap="round" stroke-linejoin="round"/><polygon points="335.74,291.26 359.16,304.78 359.16,273.34 335.74,259.82" fill="#dbdbdb" stroke="#0a0c0b" stroke-width="0.75" stroke-linecap="round" stroke-linejoin="round"/><polygon points="440.84,230.58 464.26,244.1 440.84,257.62 417.43,244.1" fill="#ffffff" stroke="#0a0c0b" stroke-width="0.75" stroke-linecap="round" stroke-linejoin="round"/><polygon points="440.84,230.58 464.26,244.1 440.84,257.62 417.43,244.1" fill="#c8f94e" stroke="#0a0c0b" stroke-width="0.75" stroke-linecap="round" stroke-linejoin="round"/><polygon points="382.57,291.26 359.16,304.78 359.16,273.34 382.57,259.82" fill="#b8b8b8" stroke="#0a0c0b" stroke-width="0.75" stroke-linecap="round" stroke-linejoin="round"/><polygon points="386.39,230.58 409.8,244.1 386.39,257.62 362.97,244.1" fill="#ffffff" stroke="#0a0c0b" stroke-width="0.75" stroke-linecap="round" stroke-linejoin="round"/><polygon points="417.43,306.98 440.84,320.5 440.84,257.62 417.43,244.1" fill="#dbdbdb" stroke="#0a0c0b" stroke-width="0.75" stroke-linecap="round" stroke-linejoin="round"/><polygon points="386.39,230.58 409.8,244.1 386.39,257.62 362.97,244.1" fill="#c8f94e" stroke="#0a0c0b" stroke-width="0.75" stroke-linecap="round" stroke-linejoin="round"/><polygon points="464.26,306.98 440.84,320.5 440.84,257.62 464.26,244.1" fill="#b8b8b8" stroke="#0a0c0b" stroke-width="0.75" stroke-linecap="round" stroke-linejoin="round"/><polygon points="362.97,306.98 386.39,320.5 386.39,257.62 362.97,244.1" fill="#dbdbdb" stroke="#0a0c0b" stroke-width="0.75" stroke-linecap="round" stroke-linejoin="round"/><polygon points="413.61,214.86 437.03,228.38 413.61,241.9 390.2,228.38" fill="#ffffff" stroke="#0a0c0b" stroke-width="0.75" stroke-linecap="round" stroke-linejoin="round"/><polygon points="413.61,214.86 437.03,228.38 413.61,241.9 390.2,228.38" fill="#c8f94e" stroke="#0a0c0b" stroke-width="0.75" stroke-linecap="round" stroke-linejoin="round"/><polygon points="409.8,306.98 386.39,320.5 386.39,257.62 409.8,244.1" fill="#b8b8b8" stroke="#0a0c0b" stroke-width="0.75" stroke-linecap="round" stroke-linejoin="round"/><polygon points="390.2,322.7 413.61,336.22 413.61,241.9 390.2,228.38" fill="#dbdbdb" stroke="#0a0c0b" stroke-width="0.75" stroke-linecap="round" stroke-linejoin="round"/><polygon points="437.03,322.7 413.61,336.22 413.61,241.9 437.03,228.38" fill="#b8b8b8" stroke="#0a0c0b" stroke-width="0.75" stroke-linecap="round" stroke-linejoin="round"/><rect x="653.3" y="67" width="106.7" height="1.5" fill="#c8f94e" transform="translate(653.3,67) scale(0,1) translate(-653.3,-67)"/><rect x="622.5" y="67" width="137.5" height="1.5" fill="#c8f94e" transform="translate(622.5,67) scale(0,1) translate(-622.5,-67)"/><rect x="653.3" y="67" width="106.7" height="1.5" fill="#c8f94e"/><text x="653.3" y="60" font-family="'JetBrains Mono','Cascadia Mono',Consolas,'DejaVu Sans Mono',ui-monospace,monospace" font-size="11" fill="#0a0c0b" font-weight="600" letter-spacing="1.1" opacity="0">2D SITE LAYOUT</text><text x="622.5" y="60" font-family="'JetBrains Mono','Cascadia Mono',Consolas,'DejaVu Sans Mono',ui-monospace,monospace" font-size="11" fill="#0a0c0b" font-weight="600" letter-spacing="1.1" opacity="0">EXTRUDING GEOMETRY</text><text x="653.3" y="60" font-family="'JetBrains Mono','Cascadia Mono',Consolas,'DejaVu Sans Mono',ui-monospace,monospace" font-size="11" fill="#0a0c0b" font-weight="600" letter-spacing="1.1">3D REVIT MODEL</text><circle cx="44" cy="30" r="3.5" fill="#c8f94e" stroke="#0a0c0b" stroke-width="0.75" stroke-linecap="round" stroke-linejoin="round"/><text x="56" y="34" font-family="'JetBrains Mono','Cascadia Mono',Consolas,'DejaVu Sans Mono',ui-monospace,monospace" font-size="13" fill="#0a0c0b" font-weight="700" letter-spacing="2.2">AUTOMATED MODEL GENERATION</text><text x="56" y="50" font-family="'JetBrains Mono','Cascadia Mono',Consolas,'DejaVu Sans Mono',ui-monospace,monospace" font-size="9" fill="#8a918c" letter-spacing="1.6">FROM SITE LAYOUT TO COORDINATED MODEL</text><circle cx="43" cy="367" r="3" fill="none" stroke="#8a918c" stroke-width="0.75" stroke-linecap="round" stroke-linejoin="round"/><text x="52" y="370" font-family="'JetBrains Mono','Cascadia Mono',Consolas,'DejaVu Sans Mono',ui-monospace,monospace" font-size="8" fill="#8a918c" font-weight="500" letter-spacing="1.4">2D</text><circle cx="92" cy="367" r="3" fill="none" stroke="#8a918c" stroke-width="0.75" stroke-linecap="round" stroke-linejoin="round"/><text x="101" y="370" font-family="'JetBrains Mono','Cascadia Mono',Consolas,'DejaVu Sans Mono',ui-monospace,monospace" font-size="8" fill="#8a918c" font-weight="500" letter-spacing="1.4">EXTRUDE</text><circle cx="172" cy="367" r="3" fill="none" stroke="#8a918c" stroke-width="0.75" stroke-linecap="round" stroke-linejoin="round"/><text x="181" y="370" font-family="'JetBrains Mono','Cascadia Mono',Consolas,'DejaVu Sans Mono',ui-monospace,monospace" font-size="8" fill="#8a918c" font-weight="500" letter-spacing="1.4">3D</text><circle cx="43" cy="367" r="3" fill="#c8f94e" stroke="#0a0c0b" stroke-width="0.75" stroke-linecap="round" stroke-linejoin="round"/><circle cx="92" cy="367" r="3" fill="#c8f94e" stroke="#0a0c0b" stroke-width="0.75" stroke-linecap="round" stroke-linejoin="round"/><circle cx="172" cy="367" r="3" fill="#c8f94e" stroke="#0a0c0b" stroke-width="0.75" stroke-linecap="round" stroke-linejoin="round"/></svg>